<svg width="258" height="295" viewBox="0 0 258 295" fill="none" xmlns="http://www.w3.org/2000/svg">
<path d="M18.1353 36.5816C0 54.7256 0 83.9315 0 142.337V152.662C0 211.068 0 240.275 18.1353 258.418C36.2705 276.563 65.4623 276.562 123.84 276.562H134.16C192.538 276.562 221.73 276.563 239.865 258.418C258 240.275 258 211.068 258 152.662V142.337C258 83.9315 258 54.7256 239.865 36.5816C221.73 18.4375 192.538 18.4375 134.16 18.4375H123.84C65.4623 18.4375 36.2705 18.4375 18.1353 36.5816ZM43.5375 96.9507H72.9927C73.9602 146.209 95.6748 167.074 112.875 171.377V96.9507H140.61V139.434C157.595 137.605 175.44 118.246 181.46 96.9507H209.195C206.926 107.995 202.403 118.451 195.911 127.668C189.419 136.883 181.096 144.66 171.462 150.512C182.218 155.854 191.719 163.42 199.335 172.708C206.951 181.997 212.51 192.797 215.645 204.395H185.115C182.302 194.321 176.577 185.303 168.659 178.472C160.741 171.641 150.984 167.302 140.61 165.999V204.395H137.277C78.4752 204.395 44.935 164.063 43.5375 96.9507Z" fill="#00F0FF"/>
</svg>
