<svg width="288" height="256" viewBox="0 0 288 256" fill="none" xmlns="http://www.w3.org/2000/svg">
<path d="M274.828 62.0415C271.687 50.2165 262.434 40.9035 250.685 37.743C229.39 32 144 32 144 32C144 32 58.61 32 37.3145 37.743C25.566 40.904 16.313 50.2165 13.1725 62.0415C7.4665 83.475 7.4665 128.194 7.4665 128.194C7.4665 128.194 7.4665 172.913 13.1725 194.346C16.313 206.171 25.566 215.097 37.3145 218.257C58.61 224 144 224 144 224C144 224 229.39 224 250.685 218.257C262.434 215.097 271.687 206.171 274.828 194.346C280.534 172.913 280.534 128.194 280.534 128.194C280.534 128.194 280.534 83.475 274.828 62.0415V62.0415ZM116.073 168.796V87.5925L187.442 128.195L116.073 168.796V168.796Z" fill="#00F0FF"/>
</svg>
